<svg xmlns="http://www.w3.org/2000/svg" viewBox="0 0 442.56 325.86"><defs><style>.cls-1{fill:none;}.cls-1,.cls-2,.cls-3{stroke:#473f3b;stroke-miterlimit:10;stroke-width:3px;}.cls-2{fill:#fcf8c2;}.cls-3{fill:#c0886a;}.cls-4{font-size:25.46px;fill:#302c28;font-family:ProvidenceSansPro, Providence Sans Pro;}</style></defs><g id="Layer_2" data-name="Layer 2"><g id="Layer_1-2" data-name="Layer 1"><path class="cls-1" d="M269,167.83c91.53,7.66,52.85-22.59,31.4-18.38s3.83,45.19,42.51,40.59,18-17.61,18-17.61-15.7-6.13-18.38,6.13,54,17.61,54,17.61,20.3-2.3,18-14.93-31.79-3.83-17.24,8.42,45.19,13.41,45.19,13.41"/><path class="cls-2" d="M269,167.45c0,2.35-14.15,6.2-14.5,8.49-3,20-18.73,37.53-41.81,49.08-1.72.87-3.49,1.69-5.29,2.49h0c-17.12,7.54-37.72,11.94-59.9,11.94A154.47,154.47,0,0,1,99,231.87h0A215.71,215.71,0,0,1,75.2,221.12C52.94,209.36,40,189.65,40,169c0-24.33,18.83-45.79,47.45-58.44h0a143.07,143.07,0,0,1,41.56-11h0a162.25,162.25,0,0,1,18.5-1,158.12,158.12,0,0,1,39.54,4.92,122.89,122.89,0,0,1,37,16.06c15.42,10.24,26.09,23.56,29.66,38.43C254.59,161.52,269,163.68,269,167.45Z"/><path class="cls-1" d="M147.24,31.11c-6.66,4-9.82-5.46-11-10.35a6.94,6.94,0,0,1,.93-5.38,22.53,22.53,0,0,1,2.41-3.16,86.47,86.47,0,0,1,7.62,4.72S156,25.75,147.24,31.11Z"/><path class="cls-2" d="M217.06,75.87l-30,27.56a158.12,158.12,0,0,0-39.54-4.92,162.25,162.25,0,0,0-18.5,1h0c-.74-.49-78.93-52.13-53.77-84.15,19-24.17,50.09-11.15,64.38-3.19a22.53,22.53,0,0,0-2.41,3.16,6.94,6.94,0,0,0-.93,5.38c1.14,4.89,4.3,14.4,11,10.35,6-3.67,3.8-8.95,1.8-11.92a11.94,11.94,0,0,0-3.37-3.31c-1.3-.86-3.38-2.17-6-3.66,3.47-3.79,9.5-7.83,19.11-6.77,16.7,1.86,91.73,7.32,64.87,61.75A29.5,29.5,0,0,1,217.06,75.87Z"/><circle class="cls-3" cx="56.19" cy="153.95" r="3.93"/><circle class="cls-3" cx="76.67" cy="153.95" r="3.93"/><path class="cls-1" d="M128.85,99.66s26.43-4.21,58.21,3.83"/><path class="cls-3" d="M187.06,103.43h0s29.84,85.48-17.22,134.49l14.29-2.51a14.83,14.83,0,0,0,2.18-.56l21.12-7.34c.15,0,3-1.47,6.07-3,8.66-6.33,22.94-28,10.57-105-13.17-9.65-35.46-15.61-36.42-15.91s0,1.65,0,1.65"/><path class="cls-3" d="M129.15,101.41s.52-3.43-2-1.63-13.72-.59-39.71,10.75h0c.1.34,12.89,43.51-12.25,110.58L99,231.87h0s37.07-39,30.05-132.23a.25.25,0,0,1,0-.08"/><text class="cls-4" transform="translate(81.3 290.84) rotate(25.66)">l</text><text class="cls-4" transform="matrix(0.93, 0.35, -0.35, 0.93, 92.39, 295.99)">i</text><text class="cls-4" transform="translate(104.47 300.42) rotate(15.53)">t</text><text class="cls-4" transform="matrix(0.98, 0.17, -0.17, 0.98, 118.45, 304.1)">t</text><text class="cls-4" transform="translate(133.46 306.45) rotate(4.87)">l</text><text class="cls-4" transform="matrix(1, -0.02, 0.02, 1, 146.09, 307.41)">e</text><text class="cls-4" transform="translate(164.54 306.77) rotate(-8.51)">b</text><text class="cls-4" transform="translate(184.28 303.43) rotate(-15.74)">u</text><text class="cls-4" transform="translate(201.01 298.59) rotate(-23.6)">m</text></g></g></svg>