<svg xmlns="http://www.w3.org/2000/svg" viewBox="0 0 445.56 318.04"><defs><style>.cls-1{fill:none;}.cls-1,.cls-2,.cls-3{stroke:#473f3b;stroke-miterlimit:10;stroke-width:3px;}.cls-2{fill:#fcf8c2;}.cls-3{fill:#c0886a;}.cls-4{font-size:25.46px;fill:#302c28;font-family:ProvidenceSansPro, Providence Sans Pro;}</style></defs><g id="Layer_2" data-name="Layer 2"><g id="logos"><path class="cls-1" d="M272,198c91.53,7.66,52.85-22.59,31.4-18.38s3.83,45.19,42.51,40.6,18-17.62,18-17.62-15.7-6.13-18.38,6.13,54,17.61,54,17.61,20.3-2.29,18-14.93-31.79-3.83-17.24,8.42,45.19,13.41,45.19,13.41"/><path class="cls-2" d="M272,197.63c0,2.35-14.15,6.2-14.5,8.49-3,20-18.73,37.54-41.81,49.09-1.72.86-3.49,1.69-5.29,2.48h0c-17.12,7.54-37.72,11.94-59.9,11.94A154.47,154.47,0,0,1,102,262.05h0A215.71,215.71,0,0,1,78.2,251.3C55.94,239.55,43,219.83,43,199.16c0-24.33,18.83-45.79,47.45-58.44h0a143.39,143.39,0,0,1,41.56-11h0a162.27,162.27,0,0,1,18.5-1,158.13,158.13,0,0,1,39.54,4.91,122.65,122.65,0,0,1,37,16.07c15.42,10.24,26.09,23.56,29.66,38.42C257.59,191.7,272,193.87,272,197.63Z"/><path class="cls-1" d="M150.24,61.29c-6.66,4.06-9.82-5.46-11-10.35a6.94,6.94,0,0,1,.93-5.38,21.93,21.93,0,0,1,2.41-3.15,85.22,85.22,0,0,1,7.62,4.71S159,55.93,150.24,61.29Z"/><path class="cls-2" d="M220.06,106.06l-30,27.55a158.13,158.13,0,0,0-39.54-4.91,162.27,162.27,0,0,0-18.5,1h0c-.74-.49-78.93-52.13-53.77-84.15,19-24.17,50.09-11.15,64.38-3.18a21.93,21.93,0,0,0-2.41,3.15,6.94,6.94,0,0,0-.93,5.38c1.14,4.89,4.3,14.41,11,10.35,6-3.66,3.8-8.94,1.8-11.92a12.21,12.21,0,0,0-3.37-3.31c-1.3-.86-3.38-2.17-6-3.65,3.47-3.8,9.5-7.84,19.11-6.77,16.7,1.85,91.73,7.31,64.87,61.74A29.55,29.55,0,0,1,220.06,106.06Z"/><circle class="cls-3" cx="59.19" cy="184.13" r="3.93"/><circle class="cls-3" cx="79.67" cy="184.13" r="3.93"/><path class="cls-1" d="M131.85,129.85s26.43-4.22,58.21,3.82"/><path class="cls-3" d="M190.06,133.61h0s29.84,85.49-17.22,134.49l14.29-2.5a14.87,14.87,0,0,0,2.18-.57l21.12-7.34c.15,0,3-1.47,6.07-3,8.66-6.32,22.94-28,10.57-105-13.17-9.66-35.46-15.62-36.42-15.92s0,1.65,0,1.65"/><path class="cls-3" d="M132.15,131.59s.52-3.43-2-1.63-13.72-.59-39.71,10.75h0c.1.34,12.89,43.51-12.25,110.58L102,262.05h0s37.07-39,30.05-132.23a.25.25,0,0,1,0-.08"/><text class="cls-4" transform="translate(81.3 283.03) rotate(25.66)">l</text><text class="cls-4" transform="matrix(0.93, 0.35, -0.35, 0.93, 92.39, 288.17)">i</text><text class="cls-4" transform="translate(104.47 292.6) rotate(15.53)">t</text><text class="cls-4" transform="matrix(0.98, 0.17, -0.17, 0.98, 118.45, 296.28)">t</text><text class="cls-4" transform="translate(133.46 298.63) rotate(4.87)">l</text><text class="cls-4" transform="matrix(1, -0.02, 0.02, 1, 146.09, 299.59)">e</text><text class="cls-4" transform="translate(164.54 298.95) rotate(-8.51)">b</text><text class="cls-4" transform="translate(184.28 295.61) rotate(-15.74)">u</text><text class="cls-4" transform="translate(201.01 290.77) rotate(-23.6)">m</text></g></g></svg>