<svg id="Layer_1" data-name="Layer 1" xmlns="http://www.w3.org/2000/svg" viewBox="0 0 314 314"><defs><style>.cls-1{fill:#fff;}.cls-2{fill:#c0886a;}</style></defs><circle id="logoshell" class="cls-1" cx="157" cy="157" r="157"/><path id="body" class="cls-2" d="M719.91,438.17c0,26.11-49.71,48.5-98.21,55.77-28.89,4.33-54.9-7.18-71.39-22.71-4,1.48-7.74,1.38-10.31-.63-2.91-2.29-3.76-6.61-2.74-11.64-6,1.43-11.69.2-14.83-3.81-5-6.31-1.73-17.14,7.22-24.17a29,29,0,0,1,3.78-2.53c7.59-22.06,44.22-38.78,88.27-38.78C671.26,389.67,719.91,412.05,719.91,438.17Z" transform="translate(-463.5 -267.5)"/><path id="leftwing" class="cls-2" d="M599.27,389.06c-44.86-30.31-60.63-71.54-37.59-70.33s50.93,9.7,49.71,35.17S599.27,389.06,599.27,389.06Z" transform="translate(-463.5 -267.5)"/><path id="rightwing" class="cls-2" d="M602.91,389.06C630.79,336.92,650.19,305.4,655,326s-26.67,52.14-36.37,57S602.91,389.06,602.91,389.06Z" transform="translate(-463.5 -267.5)"/></svg>